<svg width="29" height="29" viewBox="0 0 29 29" fill="none" xmlns="http://www.w3.org/2000/svg">
<path d="M15.5738 14.5L28.7776 1.29625C28.92 1.15385 29 0.960708 29 0.759323C29 0.557938 28.92 0.364802 28.7776 0.222401C28.6352 0.0800003 28.4421 6.36581e-09 28.2407 0C28.0393 -6.3658e-09 27.8462 0.0800003 27.7038 0.222401L14.5 13.4262L1.29625 0.222401C1.15385 0.0800003 0.960708 -6.3658e-09 0.759323 0C0.557938 6.36581e-09 0.364802 0.0800003 0.222401 0.222401C0.0800003 0.364802 6.36581e-09 0.557938 0 0.759323C-6.3658e-09 0.960708 0.0800003 1.15385 0.222401 1.29625L13.4262 14.5L0.222401 27.7038C0.151891 27.7743 0.0959591 27.858 0.0577995 27.9501C0.01964 28.0422 3.15203e-09 28.141 0 28.2407C-3.15202e-09 28.3404 0.01964 28.4391 0.0577995 28.5313C0.0959591 28.6234 0.151891 28.7071 0.222401 28.7776C0.292911 28.8481 0.376617 28.904 0.468743 28.9422C0.560868 28.9804 0.659607 29 0.759323 29C0.859038 29 0.957777 28.9804 1.0499 28.9422C1.14203 28.904 1.22574 28.8481 1.29625 28.7776L14.5 15.5738L27.7038 28.7776C27.8462 28.92 28.0393 29 28.2407 29C28.4421 29 28.6352 28.92 28.7776 28.7776C28.92 28.6352 29 28.4421 29 28.2407C29 28.0393 28.92 27.8462 28.7776 27.7038L15.5738 14.5Z" fill="#A1A1A1"/>
</svg>
