<svg width="71" height="22" viewBox="0 0 71 22" fill="none" xmlns="http://www.w3.org/2000/svg">
<path d="M1.584 2.2V19H13.824V15.16H6.024V12.424H12.96V8.608H6.024V6.04H13.68V2.2H1.584ZM20.8365 19V12.136C20.8365 11.224 20.8125 10.168 20.7405 9.376L27.3165 19H31.5165V2.2H27.0765V9.064C27.0765 10 27.1005 11.056 27.1725 11.848L20.5965 2.2H16.3965V19H20.8365ZM34.0778 6.784C34.0778 12.784 42.8138 11.968 42.8138 14.392C42.8138 15.232 42.0698 15.52 40.3177 15.52C38.3978 15.52 36.1897 14.992 34.1978 13.624V17.824C35.9737 18.808 38.2298 19.36 40.6537 19.36C44.3257 19.36 47.3738 18.208 47.3738 14.224C47.3738 8.272 38.6378 8.944 38.6378 6.76C38.6378 6.136 39.1418 5.704 40.7737 5.68C42.7177 5.656 44.6137 6.184 46.0538 7.264V3.184C44.5898 2.344 42.5017 1.84 40.4138 1.84C36.9577 1.84 34.0778 3.424 34.0778 6.784Z" fill="black"/>
<path d="M16.6388 3.3244C16.6388 3.39589 16.688 3.50313 16.7864 3.64611C16.9094 3.77122 17.0447 3.92314 17.1922 4.10188C17.3398 4.26273 17.4751 4.44147 17.5981 4.63807C17.7456 4.83467 17.844 5.03128 17.8932 5.22788C17.9916 5.56747 18.1146 5.89812 18.2621 6.21984C18.4097 6.52368 18.5573 6.83646 18.7049 7.15818C18.5819 7.33691 18.4958 7.51564 18.4466 7.69437C18.3974 7.8731 18.3728 7.98928 18.3728 8.0429C18.3728 8.18588 18.4466 8.42717 18.5942 8.76675C18.7663 9.10634 18.8524 9.44593 18.8524 9.78552C18.8524 9.87489 18.8401 9.95532 18.8155 10.0268C18.8155 10.0983 18.8155 10.1787 18.8155 10.2681C18.8155 10.3575 18.8155 10.4468 18.8155 10.5362C18.8401 10.6077 18.8647 10.6881 18.8893 10.7775C18.8401 10.7775 18.8032 10.7864 18.7786 10.8043C18.8278 10.7685 18.8524 10.7507 18.8524 10.7507C18.9508 10.8222 19 10.9026 19 10.992C19 11.0813 18.9754 11.1439 18.9262 11.1796C18.8524 11.2511 18.7909 11.3673 18.7417 11.5281C18.7172 11.689 18.6803 11.8588 18.6311 12.0375C18.5819 12.1984 18.5204 12.3414 18.4466 12.4665C18.3974 12.5916 18.3236 12.6542 18.2252 12.6542C18.2498 12.672 18.2621 12.6988 18.2621 12.7346C18.2621 12.7346 18.2375 12.7256 18.1883 12.7078C18.2129 12.6899 18.2375 12.681 18.2621 12.681C18.2621 12.8061 18.2252 13.0206 18.1515 13.3244C18.0777 13.6282 17.967 13.9768 17.8194 14.37C17.6718 14.7632 17.4628 15.1832 17.1922 15.63C16.9217 16.059 16.5773 16.4611 16.1592 16.8365C15.9133 17.3012 15.5197 17.7301 14.9786 18.1233C14.4621 18.4987 13.8718 18.8293 13.2078 19.1153C12.5683 19.4013 11.8796 19.6157 11.1417 19.7587C10.4285 19.9196 9.7644 20 9.14952 20C8.06732 20 7.00971 19.8123 5.9767 19.437C5.55858 19.294 5.16505 19.0706 4.79612 18.7668C4.42718 18.445 4.00906 18.1769 3.54175 17.9625C3.34498 17.9446 3.13592 17.8195 2.91456 17.5871C2.7178 17.3369 2.52104 17.0599 2.32427 16.756C2.12751 16.4522 1.91845 16.1573 1.69709 15.8713C1.50032 15.5853 1.29126 15.3709 1.0699 15.2279C1.0699 15.2279 1.02071 15.1564 0.92233 15.0134C0.848544 14.8525 0.750162 14.6649 0.627184 14.4504C0.528803 14.2359 0.430421 14.0214 0.332039 13.807C0.258252 13.5746 0.221359 13.387 0.221359 13.244C0.221359 13.1546 0.233657 13.0652 0.258252 12.9759C0.282848 12.8865 0.295146 12.7971 0.295146 12.7078C0.295146 12.529 0.245955 12.3414 0.147573 12.1448C0.0737863 11.9303 0.0368931 11.7069 0.0368931 11.4745C0.0368931 11.403 0.0368931 11.3405 0.0368931 11.2869C0.0614886 11.2332 0.0737864 11.1707 0.0737864 11.0992C0.0737864 10.9383 0.0614886 10.7775 0.0368931 10.6166C0.0122977 10.4558 0 10.2949 0 10.134C0 9.83021 0.0122977 9.42806 0.0368931 8.92761C0.086084 8.42717 0.184466 7.8731 0.332039 7.26541C0.479612 6.65773 0.700971 6.0143 0.996117 5.33512C1.29126 4.65594 1.69709 3.9857 2.21359 3.3244C2.45955 3.00268 2.7055 2.66309 2.95146 2.30563C3.22201 1.94817 3.50485 1.62645 3.8 1.34048C4.11974 1.05451 4.47638 0.822162 4.8699 0.643431C5.28803 0.446826 5.79223 0.348525 6.38253 0.348525C6.5301 0.348525 6.67767 0.366398 6.82524 0.402144C6.99741 0.420017 7.15728 0.428954 7.30485 0.428954C7.72298 0.428954 8.22718 0.357461 8.81748 0.214476C9.43236 0.0714915 10.0227 0 10.5884 0C11.2032 0 11.7566 0.0446827 12.2485 0.134048C12.7405 0.20554 13.257 0.339588 13.7981 0.536193C13.9702 0.607685 14.1547 0.759606 14.3515 0.991957C14.5728 1.22431 14.8065 1.35836 15.0524 1.3941C15.4951 1.69794 15.8026 1.93029 15.9748 2.09115C16.1469 2.23414 16.2576 2.36818 16.3068 2.4933C16.356 2.60054 16.3806 2.71671 16.3806 2.84182C16.4052 2.94906 16.4913 3.10992 16.6388 3.3244ZM7.19418 16.9705C7.16958 16.9526 7.15728 16.9437 7.15728 16.9437C7.15728 16.9258 7.14498 16.908 7.12039 16.8901L7.0466 16.9169C7.0466 16.9526 7.0712 16.9705 7.12039 16.9705C7.12039 16.9705 7.14498 16.9616 7.19418 16.9437C7.19418 16.9973 7.19418 17.0331 7.19418 17.0509C7.21877 17.0509 7.24337 17.0599 7.26796 17.0777C7.29256 17.0599 7.30485 17.042 7.30485 17.0241C7.30485 17.0241 7.26796 17.0063 7.19418 16.9705ZM8.04272 17.2118C8.21489 17.2118 8.42395 17.2386 8.6699 17.2922C8.91586 17.3458 9.17411 17.4084 9.44466 17.4799C9.71521 17.5514 9.97346 17.6139 10.2194 17.6676C10.4654 17.7212 10.6744 17.748 10.8466 17.748C11.1417 17.748 11.4369 17.6944 11.732 17.5871C12.5191 17.319 13.2447 16.9169 13.9087 16.3807C14.5974 15.8266 15.1877 15.21 15.6796 14.5308C16.1715 13.8517 16.5528 13.1367 16.8233 12.3861C17.0939 11.6354 17.2291 10.9205 17.2291 10.2413C17.2291 9.77659 17.2045 9.28508 17.1553 8.76675C17.1307 8.23056 17.0201 7.75693 16.8233 7.34584C16.7003 7.11349 16.6511 6.88114 16.6757 6.64879C16.7003 6.39857 16.6265 6.16622 16.4544 5.95174C16.4298 5.93387 16.4175 5.90706 16.4175 5.87131C16.4175 5.81769 16.4298 5.77301 16.4544 5.73727C16.479 5.68365 16.4913 5.63896 16.4913 5.60322C16.4913 5.38874 16.3806 5.15639 16.1592 4.90617C15.9625 4.63807 15.7288 4.36997 15.4583 4.10188C15.1877 3.83378 14.9172 3.56568 14.6466 3.29759C14.3761 3.02949 14.167 2.7882 14.0194 2.57373C13.9702 2.48436 13.7858 2.37712 13.466 2.25201C13.1463 2.10903 12.9126 1.96604 12.765 1.82306C12.5191 1.60858 12.2239 1.4924 11.8796 1.47453C11.5599 1.45666 11.2893 1.36729 11.068 1.20643C10.9942 1.17069 10.7728 1.11707 10.4039 1.04558C10.0595 0.956211 9.7521 0.911527 9.48155 0.911527C9.38317 0.911527 9.18641 1.01877 8.89126 1.23324C8.59612 1.44772 8.27638 1.70688 7.93204 2.01072C7.6123 2.31457 7.30485 2.62734 7.00971 2.94906C6.73916 3.2529 6.55469 3.50313 6.45631 3.69973C6.18576 4.2538 5.84142 4.82574 5.4233 5.41555C5.00518 5.98749 4.74693 6.53262 4.64854 7.05094C4.57476 7.44415 4.42718 7.84629 4.20583 8.25737C3.98447 8.65058 3.87379 9.05273 3.87379 9.46381C3.87379 9.55317 3.89838 9.6336 3.94757 9.70509C3.99676 9.75871 4.02136 9.82127 4.02136 9.89276C4.02136 9.96425 4.00906 10.0357 3.98447 10.1072C3.98447 10.1609 3.98447 10.2145 3.98447 10.2681C3.98447 10.5362 4.03366 10.8043 4.13204 11.0724C4.23042 11.3226 4.27961 11.5728 4.27961 11.8231C4.27961 11.9124 4.25502 11.9928 4.20583 12.0643C4.18123 12.1358 4.16893 12.2073 4.16893 12.2788C4.16893 12.4397 4.26731 12.6005 4.46408 12.7614C4.66084 12.9223 4.75922 13.1099 4.75922 13.3244C4.75922 13.378 4.74693 13.4316 4.72233 13.4853C4.69774 13.5389 4.68544 13.5925 4.68544 13.6461C4.68544 13.664 4.71003 13.7176 4.75922 13.807C4.83301 13.8785 4.9068 13.9678 4.98058 14.0751C5.07896 14.1823 5.16505 14.2895 5.23883 14.3968C5.33722 14.4861 5.411 14.5666 5.46019 14.6381C5.77994 15.1385 6.18576 15.5764 6.67767 15.9517C7.19417 16.3271 7.66149 16.7382 8.07961 17.185L8.00583 17.2386C8.00583 17.2207 7.99353 17.2118 7.96893 17.2118C7.96893 17.2118 7.96893 17.2029 7.96893 17.185C7.99353 17.185 8.00583 17.1939 8.00583 17.2118C8.00583 17.2118 8.01812 17.2118 8.04272 17.2118ZM17.8563 6.00536C17.8071 5.98749 17.7702 5.97855 17.7456 5.97855C17.721 5.97855 17.6841 5.96961 17.635 5.95174C17.635 6.02323 17.6595 6.05898 17.7087 6.05898C17.7579 6.05898 17.8071 6.04111 17.8563 6.00536ZM4.79612 15.2279C4.82071 15.2279 4.84531 15.2189 4.8699 15.2011C4.8699 15.1653 4.85761 15.1475 4.83301 15.1475C4.78382 15.1475 4.75922 15.1564 4.75922 15.1743C4.75922 15.1921 4.75922 15.2011 4.75922 15.2011C4.78382 15.2011 4.79612 15.21 4.79612 15.2279ZM16.6388 3.35121C16.6388 3.33333 16.6265 3.3244 16.6019 3.3244C16.6019 3.30652 16.6142 3.28865 16.6388 3.27078V3.35121Z" transform="translate(50 1)" fill="#EF372B"/>
</svg>
