<svg width="53" height="16" viewBox="0 0 53 16" fill="none" xmlns="http://www.w3.org/2000/svg">
<path d="M0 0.288V13.728H9.62264V10.656H3.49056V8.4672H8.94339V5.4144H3.49056V3.36H9.50943V0.288H0Z" transform="translate(0 0.671997)" fill="black"/>
<path d="M15.1356 13.728V8.2368C15.1356 7.5072 15.1167 6.6624 15.0601 6.0288L20.2299 13.728H23.5318V0.288H20.0413V5.7792C20.0413 6.528 20.0601 7.3728 20.1167 8.0064L14.9469 0.288H11.645V13.728H15.1356Z" transform="translate(0 0.671997)" fill="black"/>
<path d="M25.5454 3.9552C25.5454 8.7552 32.4133 8.1024 32.4133 10.0416C32.4133 10.7136 31.8284 10.944 30.4511 10.944C28.9416 10.944 27.2058 10.5216 25.6397 9.4272V12.7872C27.036 13.5744 28.8095 14.016 30.7152 14.016C33.602 14.016 35.9982 13.0944 35.9982 9.9072C35.9982 5.1456 29.1303 5.6832 29.1303 3.936C29.1303 3.4368 29.5265 3.0912 30.8095 3.072C32.3378 3.0528 33.8284 3.4752 34.9605 4.3392V1.0752C33.8095 0.403199 32.168 0 30.5265 0C27.8095 0 25.5454 1.2672 25.5454 3.9552Z" transform="translate(0 0.671997)" fill="black"/>
<path d="M13.0808 2.65952C13.0808 2.71671 13.1195 2.8025 13.1969 2.91689C13.2935 3.01698 13.3999 3.13852 13.5159 3.2815C13.6319 3.41019 13.7383 3.55317 13.835 3.71046C13.951 3.86774 14.0283 4.02502 14.067 4.18231C14.1443 4.45398 14.241 4.7185 14.357 4.97587C14.473 5.21895 14.5891 5.46917 14.7051 5.72654C14.6084 5.86953 14.5407 6.01251 14.502 6.1555C14.4634 6.29848 14.444 6.39142 14.444 6.43432C14.444 6.5487 14.502 6.74173 14.6181 7.0134C14.7534 7.28508 14.8211 7.55675 14.8211 7.82842C14.8211 7.89991 14.8114 7.96425 14.7921 8.02145C14.7921 8.07864 14.7921 8.14299 14.7921 8.21448C14.7921 8.28597 14.7921 8.35746 14.7921 8.42896C14.8114 8.48615 14.8308 8.55049 14.8501 8.62198C14.8114 8.62198 14.7824 8.62913 14.7631 8.64343C14.8018 8.61483 14.8211 8.60054 14.8211 8.60054C14.8984 8.65773 14.9371 8.72207 14.9371 8.79356C14.9371 8.86506 14.9178 8.9151 14.8791 8.9437C14.8211 9.00089 14.7727 9.09383 14.7341 9.22252C14.7147 9.35121 14.6857 9.48704 14.6471 9.63003C14.6084 9.75871 14.5601 9.8731 14.502 9.97319C14.4634 10.0733 14.4054 10.1233 14.328 10.1233C14.3474 10.1376 14.357 10.1591 14.357 10.1877C14.357 10.1877 14.3377 10.1805 14.299 10.1662C14.3184 10.1519 14.3377 10.1448 14.357 10.1448C14.357 10.2449 14.328 10.4164 14.27 10.6595C14.212 10.9026 14.125 11.1814 14.009 11.496C13.893 11.8105 13.7286 12.1466 13.5159 12.504C13.3032 12.8472 13.0325 13.1689 12.7038 13.4692C12.5104 13.8409 12.2011 14.1841 11.7757 14.4987C11.3696 14.7989 10.9055 15.0634 10.3835 15.2922C9.88073 15.521 9.33932 15.6926 8.75923 15.807C8.19849 15.9357 7.67642 16 7.19301 16C6.34223 16 5.51078 15.8499 4.69866 15.5496C4.36995 15.4352 4.06057 15.2565 3.77053 15.0134C3.48049 14.756 3.15178 14.5416 2.78439 14.37C2.6297 14.3557 2.46535 14.2556 2.29132 14.0697C2.13663 13.8695 1.98195 13.6479 1.82726 13.4048C1.67257 13.1618 1.50821 12.9258 1.33419 12.6971C1.1795 12.4683 1.01514 12.2967 0.841119 12.1823C0.841119 12.1823 0.802446 12.1251 0.725102 12.0107C0.667094 11.882 0.58975 11.7319 0.493069 11.5603C0.415725 11.3887 0.338381 11.2172 0.261037 11.0456C0.203029 10.8597 0.174025 10.7096 0.174025 10.5952C0.174025 10.5237 0.183693 10.4522 0.203029 10.3807C0.222365 10.3092 0.232033 10.2377 0.232033 10.1662C0.232033 10.0232 0.19336 9.8731 0.116016 9.71582C0.0580081 9.54424 0.029004 9.36551 0.029004 9.17963C0.029004 9.12243 0.029004 9.07238 0.029004 9.02949C0.0483401 8.98659 0.0580081 8.93655 0.0580081 8.87936C0.0580081 8.75067 0.0483401 8.62198 0.029004 8.4933C0.00966798 8.36461 0 8.23592 0 8.10724C0 7.86416 0.00966798 7.54245 0.029004 7.14209C0.0676761 6.74173 0.14502 6.29848 0.261037 5.81233C0.377053 5.32618 0.551078 4.81144 0.78311 4.2681C1.01514 3.72475 1.33419 3.18856 1.74024 2.65952C1.93361 2.40214 2.12697 2.13047 2.32033 1.8445C2.53302 1.55853 2.75539 1.30116 2.98742 1.07239C3.23879 0.84361 3.51916 0.657729 3.82854 0.514745C4.15725 0.357461 4.55364 0.27882 5.01771 0.27882C5.13372 0.27882 5.24974 0.293118 5.36576 0.321716C5.50111 0.336014 5.62679 0.343163 5.74281 0.343163C6.07152 0.343163 6.46791 0.285968 6.93198 0.17158C7.41538 0.0571932 7.87944 0 8.32417 0C8.80757 0 9.24264 0.0357462 9.62936 0.107239C10.0161 0.164432 10.4221 0.27167 10.8475 0.428954C10.9829 0.486148 11.1279 0.607685 11.2826 0.793565C11.4566 0.979445 11.6403 1.08668 11.8337 1.11528C12.1817 1.35836 12.4234 1.54423 12.5588 1.67292C12.6941 1.78731 12.7811 1.89455 12.8198 1.99464C12.8585 2.08043 12.8778 2.17337 12.8778 2.27346C12.8972 2.35925 12.9648 2.48794 13.0808 2.65952ZM5.6558 13.5764C5.63646 13.5621 5.62679 13.555 5.62679 13.555C5.62679 13.5407 5.61712 13.5264 5.59779 13.5121L5.53978 13.5335C5.53978 13.5621 5.55912 13.5764 5.59779 13.5764C5.59779 13.5764 5.61713 13.5693 5.6558 13.555C5.6558 13.5979 5.6558 13.6265 5.6558 13.6407C5.67513 13.6407 5.69447 13.6479 5.7138 13.6622C5.73314 13.6479 5.74281 13.6336 5.74281 13.6193C5.74281 13.6193 5.71381 13.605 5.6558 13.5764ZM6.32289 13.7694C6.45824 13.7694 6.6226 13.7909 6.81596 13.8338C7.00932 13.8767 7.21235 13.9267 7.42505 13.9839C7.63774 14.0411 7.84077 14.0912 8.03413 14.134C8.22749 14.1769 8.39185 14.1984 8.5272 14.1984C8.75923 14.1984 8.99127 14.1555 9.2233 14.0697C9.84205 13.8552 10.4125 13.5335 10.9345 13.1046C11.476 12.6613 11.94 12.168 12.3267 11.6247C12.7135 11.0813 13.0132 10.5094 13.2259 9.90885C13.4386 9.30831 13.5449 8.73637 13.5449 8.19303C13.5449 7.82127 13.5256 7.42806 13.4869 7.0134C13.4676 6.58445 13.3806 6.20554 13.2259 5.87668C13.1292 5.69079 13.0905 5.50491 13.1098 5.31903C13.1292 5.11885 13.0712 4.93297 12.9358 4.76139C12.9165 4.74709 12.9068 4.72565 12.9068 4.69705C12.9068 4.65415 12.9165 4.61841 12.9358 4.58981C12.9552 4.54692 12.9648 4.51117 12.9648 4.48257C12.9648 4.31099 12.8778 4.12511 12.7038 3.92493C12.5491 3.71046 12.3654 3.49598 12.1527 3.2815C11.94 3.06702 11.7273 2.85255 11.5146 2.63807C11.3019 2.42359 11.1376 2.23056 11.0216 2.05898C10.9829 1.98749 10.8379 1.9017 10.5865 1.80161C10.3351 1.68722 10.1514 1.57283 10.0354 1.45844C9.84205 1.28686 9.61002 1.19392 9.33932 1.17962C9.08795 1.16533 8.87525 1.09383 8.70123 0.965147C8.64322 0.93655 8.46919 0.893655 8.17915 0.836461C7.90845 0.764969 7.66675 0.729222 7.45405 0.729222C7.37671 0.729222 7.22202 0.815013 6.98999 0.986594C6.75795 1.15818 6.50658 1.3655 6.23588 1.60858C5.98451 1.85165 5.74281 2.10188 5.51078 2.35925C5.29808 2.60232 5.15306 2.8025 5.07572 2.95978C4.86302 3.40304 4.59231 3.86059 4.2636 4.33244C3.93489 4.78999 3.73186 5.22609 3.65451 5.64075C3.59651 5.95532 3.48049 6.27703 3.30647 6.6059C3.13244 6.92046 3.04543 7.24218 3.04543 7.57104C3.04543 7.64254 3.06477 7.70688 3.10344 7.76407C3.14211 7.80697 3.16145 7.85702 3.16145 7.91421C3.16145 7.9714 3.15178 8.0286 3.13244 8.08579C3.13244 8.12869 3.13244 8.17158 3.13244 8.21448C3.13244 8.42896 3.17111 8.64343 3.24846 8.85791C3.3258 9.05809 3.36447 9.25827 3.36447 9.45845C3.36447 9.52994 3.34514 9.59428 3.30647 9.65147C3.28713 9.70867 3.27746 9.76586 3.27746 9.82306C3.27746 9.95174 3.35481 10.0804 3.50949 10.2091C3.66418 10.3378 3.74153 10.4879 3.74153 10.6595C3.74153 10.7024 3.73186 10.7453 3.71252 10.7882C3.69319 10.8311 3.68352 10.874 3.68352 10.9169C3.68352 10.9312 3.70285 10.9741 3.74153 11.0456C3.79954 11.1028 3.85754 11.1743 3.91555 11.2601C3.9929 11.3458 4.06057 11.4316 4.11858 11.5174C4.19592 11.5889 4.25393 11.6533 4.2926 11.7105C4.54397 12.1108 4.86302 12.4611 5.24974 12.7614C5.6558 13.0617 6.02318 13.3905 6.35189 13.748L6.29389 13.7909C6.29389 13.7766 6.28422 13.7694 6.26488 13.7694C6.26488 13.7694 6.26488 13.7623 6.26488 13.748C6.28422 13.748 6.29389 13.7551 6.29389 13.7694C6.29389 13.7694 6.30356 13.7694 6.32289 13.7694ZM14.038 4.80429C13.9993 4.78999 13.9703 4.78284 13.951 4.78284C13.9316 4.78284 13.9026 4.77569 13.864 4.76139C13.864 4.81859 13.8833 4.84718 13.922 4.84718C13.9606 4.84718 13.9993 4.83289 14.038 4.80429ZM3.77053 12.1823C3.78987 12.1823 3.8092 12.1752 3.82854 12.1609C3.82854 12.1323 3.81887 12.118 3.79954 12.118C3.76086 12.118 3.74153 12.1251 3.74153 12.1394C3.74153 12.1537 3.74153 12.1609 3.74153 12.1609C3.76086 12.1609 3.77053 12.168 3.77053 12.1823ZM13.0808 2.68097C13.0808 2.66667 13.0712 2.65952 13.0518 2.65952C13.0518 2.64522 13.0615 2.63092 13.0808 2.61662V2.68097Z" transform="translate(38.0629)" fill="#EF372B"/>
</svg>
